<?xml version="1.0" standalone="no"?>
<!DOCTYPE svg PUBLIC "-//W3C//DTD SVG 20010904//EN"
 "http://www.w3.org/TR/2001/REC-SVG-20010904/DTD/svg10.dtd">
<svg version="1.0" xmlns="http://www.w3.org/2000/svg"
 width="700.000000pt" height="700.000000pt" viewBox="0 0 700.000000 700.000000"
 preserveAspectRatio="xMidYMid meet">
<metadata>
Created by potrace 1.14, written by Peter Selinger 2001-2017
</metadata>
<g transform="translate(0.000000,700.000000) scale(0.100000,-0.100000)"
fill="#000000" stroke="none">
<path d="M0 3500 l0 -3500 3500 0 3500 0 0 3500 0 3500 -3500 0 -3500 0 0
-3500z m3340 1990 l0 -360 -355 0 -355 0 0 360 0 360 355 0 355 0 0 -360z
m1060 0 l0 -360 -355 0 -355 0 0 353 c0 195 3 357 7 360 3 4 163 7 355 7 l348
0 0 -360z m267 -2610 c387 -1037 706 -1895 709 -1907 l6 -23 -448 0 -449 0
-134 413 c-73 226 -139 427 -147 445 l-13 32 -688 -2 -688 -3 -141 -440 -141
-440 -447 -3 c-375 -2 -447 0 -444 11 2 8 323 868 713 1911 l710 1896 449 -2
450 -3 703 -1885z"/>
<path d="M3451 3843 c-53 -193 -100 -345 -275 -887 -75 -231 -136 -421 -136
-423 0 -2 210 -3 466 -3 369 0 465 3 461 13 -2 6 -44 134 -92 282 -48 149
-140 430 -205 625 -65 195 -128 399 -141 453 -13 53 -26 97 -29 97 -4 0 -26
-71 -49 -157z"/>
</g>
</svg>
