<?xml version="1.0" encoding="UTF-8"?>
<svg id="Layer_2" data-name="Layer 2" xmlns="http://www.w3.org/2000/svg" viewBox="0 0 680 680">
  <defs>
    <style>
      .cls-1 {
        fill: #0039ff;
      }

      .cls-2 {
        fill: #fff;
      }
    </style>
  </defs>
  <g id="Layer_1-2" data-name="Layer 1">
    <rect class="cls-1" width="680" height="680"/>
    <path class="cls-2" d="m158.93,587.6l138.92-371.16h86.96l138.39,371.16h-87.49l-73.17-224.81c-.71-2.47-1.51-5.12-2.38-7.95-.89-2.83-1.86-5.48-2.92-7.95-3.18-8.48-6.36-17.94-9.54-28.37-3.18-10.42-5.66-19.88-7.42-28.37h-.53c-2.83,10.6-5.57,20.6-8.22,29.96-2.65,9.37-5.39,18.48-8.22,27.31-.71,2.48-1.59,5.04-2.65,7.69-1.06,2.65-1.95,5.22-2.65,7.69l-72.11,224.81h-86.96Zm73.7-85.9l22.27-67.34h173.91l19.09,67.34h-215.27Zm22.8-320.25v-69.46h68.93v69.46h-68.93Zm103.39,0v-69.46h68.93v69.46h-68.93Z"/>
  </g>
</svg>